<svg width="100" height="100" viewBox="0 0 100 100" fill="none" xmlns="http://www.w3.org/2000/svg">
<path d="M93.6484 38.1807C93.5718 37.9638 93.4505 37.7654 93.2922 37.5984L62.4361 6.74228C62.2422 6.53684 61.9964 6.3876 61.7247 6.31035C61.453 6.2331 61.1655 6.23071 60.8925 6.30342L18.705 17.6003C18.4431 17.6772 18.2046 17.8186 18.0116 18.0116C17.8186 18.2046 17.6772 18.4431 17.6003 18.705L6.30342 60.8932C6.23745 61.1627 6.24166 61.4446 6.31564 61.712C6.38962 61.9794 6.5309 62.2233 6.726 62.4206L37.5951 93.2889C37.7912 93.4807 38.0332 93.6189 38.2981 93.6903C38.5629 93.7617 38.8417 93.7638 39.1076 93.6966L67.8574 85.994C68.2577 85.8867 68.5989 85.6249 68.8061 85.266C69.0133 84.9072 69.0694 84.4807 68.9622 84.0805C68.8549 83.6803 68.5931 83.339 68.2342 83.1318C67.8754 82.9247 67.4489 82.8685 67.0487 82.9758L43.9307 89.1695L73.5534 59.5467L78.975 79.777L74.5956 80.9509C74.1954 81.0582 73.8542 81.32 73.647 81.6788C73.4398 82.0377 73.3837 82.4641 73.4909 82.8644C73.5981 83.2646 73.86 83.6059 74.2188 83.813C74.5777 84.0202 75.0041 84.0764 75.4044 83.9691L81.1416 82.4326C81.3634 82.3918 81.5742 82.3051 81.7604 82.178C81.9467 82.051 82.1044 81.8864 82.2233 81.6949C82.8082 81.146 93.3078 39.6665 93.6973 39.1073C93.7799 38.8011 93.7627 38.4765 93.6484 38.1807ZM28.4439 59.967L35.6831 86.958L10.025 61.3007L24.8344 46.4917L26.4237 52.4231C26.5309 52.8233 26.7928 53.1646 27.1516 53.3718C27.5104 53.5789 27.9369 53.6351 28.3371 53.5278C28.7374 53.4206 29.0786 53.1587 29.2858 52.7999C29.493 52.4411 29.5491 52.0146 29.4419 51.6144L27.8527 45.6833L71.3444 57.3364L39.5111 89.1693L31.4621 59.1584C31.3486 58.7652 31.0854 58.4322 30.7291 58.231C30.3727 58.0297 29.9516 57.9763 29.5563 58.0823C29.161 58.1882 28.8231 58.4449 28.6151 58.7974C28.407 59.1498 28.3456 59.5698 28.4439 59.967ZM19.1127 25.137L23.9006 43.0064L10.8272 56.0796L19.1127 25.137ZM21.0281 20.2127L56.0808 10.8268L26.4518 40.4552L21.0281 20.2127ZM65.4755 29.4044L72.1521 54.318L28.6613 42.665L60.4958 10.8315L63.4506 21.8613C63.5641 22.2545 63.8273 22.5875 64.1837 22.7887C64.54 22.9899 64.9611 23.0433 65.3564 22.9374C65.7517 22.8314 66.0897 22.5746 66.2977 22.2222C66.5057 21.8697 66.5671 21.4497 66.4688 21.0525L64.325 13.0502L89.978 38.7031L75.1706 53.5103L68.4937 28.5957C68.3803 28.2025 68.1171 27.8694 67.7607 27.6681C67.4043 27.4668 66.9832 27.4134 66.5878 27.5193C66.1925 27.6253 65.8544 27.8821 65.6464 28.2346C65.4384 28.5871 65.3771 29.0072 65.4755 29.4044ZM89.1703 43.9299L80.8897 74.8509L76.1047 56.9955L89.1703 43.9299Z" fill="#B290D4"/>
</svg>
