<!-- icon666.com - MILLIONS vector ICONS FREE --><svg id="Line" viewBox="0 0 64 64" xmlns="http://www.w3.org/2000/svg"><path d="m59.93494 24.43567a1.04913 1.04913 0 0 0 -.22794-.37267l-19.74789-19.74794a1.0033 1.0033 0 0 0 -.98792-.28087l-27 7.23a1.04289 1.04289 0 0 0 -.707.707l-7.23 27.00049a1.03873 1.03873 0 0 0 .27045.97748l19.75621 19.75574a1.025 1.025 0 0 0 .968.26092l18.3999-4.92969a.99989.99989 0 0 0 -.51758-1.93164l-14.79553 3.964 18.95852-18.95857 3.46984 12.94739-2.8028.75128a.99989.99989 0 0 0 .51758 1.93164l3.67187-.98339a1.03547 1.03547 0 0 0 .69227-.47211c.37431-.35132 7.09407-26.89817 7.34336-27.25608a.9549.9549 0 0 0 -.03134-.59298zm-41.73084 13.94324 4.63306 17.27423-16.42116-16.42072 9.478-9.47772 1.01715 3.79608a.99989.99989 0 0 0 1.93164-.51758l-1.01709-3.7959 27.83472 7.458-20.37331 20.37306-5.15137-19.207a1.00007 1.00007 0 0 0 -1.93164.51755zm-5.972-22.2912 3.06427 11.4364-8.36693 8.36682zm1.2259-3.15155 22.43371-6.007-18.96257 18.9622zm28.4463 5.88269 4.27307 15.9447-27.83417-7.45795 20.37409-20.37347 1.89111 7.05908a1.00006 1.00006 0 0 0 1.9316-.51763l-1.372-5.12147 16.41794 16.41789-9.47675 9.47662-4.27325-15.94535a1.00007 1.00007 0 0 0 -1.93164.51758zm15.1647 9.29626-5.29959 19.78949-3.06241-11.42749z"></path></svg>